<svg fill="#000000" xmlns="http://www.w3.org/2000/svg"  viewBox="0 0 128 128" width="64px" height="64px"><path d="M 32 4 C 24.8 4 19 9.8 19 17 L 19 69 C 19 70.7 20.3 72 22 72 C 23.7 72 25 70.7 25 69 L 25 17 C 25 13.1 28.1 10 32 10 L 83 10 L 83 17 C 83 24.2 88.8 30 96 30 L 106 30 C 107.7 30 109 28.7 109 27 C 109 20.9 106.60078 15.099219 102.30078 10.699219 C 97.900781 6.3992188 92.1 4 86 4 L 32 4 z M 89 10.300781 C 92.4 10.900781 95.5 12.5 98 15 C 100.5 17.5 102.09922 20.6 102.69922 24 L 96 24 C 92.1 24 89 20.9 89 17 L 89 10.300781 z M 106 38 C 104.3 38 103 39.3 103 41 L 103 107 C 103 110.9 99.9 114 96 114 C 94.3 114 93 115.3 93 117 C 93 118.7 94.3 120 96 120 C 103.2 120 109 114.2 109 107 L 109 41 C 109 39.3 107.7 38 106 38 z M 80 41 A 13 13 0 0 0 80 67 A 13 13 0 0 0 80 41 z M 73.609375 79.570312 C 73.044531 79.618359 72.4875 79.824219 72 80.199219 C 70.7 81.299219 70.599609 83.2 71.599609 84.5 L 88.699219 105 C 89.299219 105.7 90.1 106 91 106 C 91.7 106 92.4 105.80078 93 105.30078 C 94.3 104.20078 94.400781 102.29961 93.300781 101.09961 L 76.199219 80.599609 C 75.511719 79.849609 74.550781 79.490234 73.609375 79.570312 z M 52 81 C 51.1 81 50.299219 81.4 49.699219 82 L 19.699219 117 C 18.599219 118.3 18.8 120.19922 20 121.19922 C 20.6 121.69922 21.399609 121.90039 22.099609 121.90039 L 82 121.90039 C 82.7 121.90039 83.4 121.69922 84 121.19922 C 85.3 120.09922 85.400781 118.2 84.300781 117 L 54.300781 82 C 53.700781 81.4 52.9 81 52 81 z"/></svg>